<svg className="w-10 text-gr fill-red-500" version="1.0" xmlns="http://www.w3.org/2000/svg"
 width="300.000000pt" height="300.000000pt" viewBox="0 0 300.000000 300.000000"
 preserveAspectRatio="xMidYMid meet">
<metadata>
Created by potrace 1.10, written by Peter Selinger 2001-2011
</metadata>
<g transform="translate(0.000000,300.000000) scale(0.100000,-0.100000)"
fill="#000000" stroke="none">
<path d="M792 2961 c-455 -112 -691 -615 -487 -1036 87 -181 245 -320 432
-381 81 -27 99 -29 233 -29 130 1 153 4 225 28 244 81 428 281 489 531 22 85
22 259 2 336 -64 244 -215 422 -436 515 -135 57 -315 71 -458 36z m46 -127
c24 -17 29 -56 10 -72 -7 -5 -48 -24 -90 -42 -125 -51 -209 -140 -238 -250
-15 -58 -26 -70 -61 -70 -62 0 -63 70 -3 189 54 107 160 193 304 247 46 17 52
17 78 -2z"/>
<path d="M2055 1781 c-95 -27 -164 -70 -245 -151 -122 -121 -171 -238 -171
-405 0 -162 55 -297 167 -409 226 -226 592 -226 818 0 112 113 166 245 166
409 0 169 -48 284 -170 405 -122 123 -239 171 -411 169 -57 0 -118 -7 -154
-18z m-61 -177 c26 -26 19 -47 -38 -106 -59 -61 -82 -117 -72 -173 8 -40 -12
-67 -49 -67 -40 0 -55 26 -55 97 0 80 42 167 107 225 49 42 82 50 107 24z"/>
<path d="M992 760 c-193 -41 -330 -240 -294 -431 46 -250 302 -386 528 -280
84 39 137 91 177 171 58 114 57 230 0 343 -72 143 -254 230 -411 197z m137
-91 c20 -7 33 -20 38 -37 11 -43 -7 -56 -85 -62 -47 -3 -76 -11 -89 -22 -25
-22 -51 -23 -75 -1 -26 23 -22 47 13 82 46 47 130 64 198 40z"/>
</g>
</svg>
